999
DXF file generated by netDxf https://github.com/haplokuon/netDxf, Copyright(C) 2009-2021 Daniel Carvajal, Licensed under MIT
0
SECTION
2
HEADER
9
$ACADVER
1
AC1032
9
$DWGCODEPAGE
3
ANSI_1252
9
$LASTSAVEDBY
1
yang.lei
9
$HANDSEED
5
173
9
$ANGBASE
50
0.0
9
$ANGDIR
70
0
9
$ATTMODE
70
1
9
$AUNITS
70
0
9
$AUPREC
70
0
9
$CECOLOR
62
256
9
$CELTSCALE
40
1.0
9
$CELTYPE
6
ByLayer
9
$CELWEIGHT
370
-1
9
$CLAYER
8
0
9
$CMLJUST
70
0
9
$CMLSCALE
40
20.0
9
$CMLSTYLE
2
Standard
9
$DIMSTYLE
2
Standard
9
$TEXTSIZE
40
2.5
9
$TEXTSTYLE
7
Standard
9
$LUNITS
70
2
9
$LUPREC
70
4
9
$MIRRTEXT
70
0
9
$EXTNAMES
290
1
9
$INSBASE
10
0.0
20
0.0
30
0.0
9
$INSUNITS
70
0
9
$LTSCALE
40
1.0
9
$LWDISPLAY
290
0
9
$PDMODE
70
0
9
$PDSIZE
40
0.0
9
$PLINEGEN
70
0
9
$PSLTSCALE
70
1
9
$TDCREATE
40
2459502.72081339
9
$TDUCREATE
40
2459502.38748008
9
$TDUPDATE
40
2459502.72081341
9
$TDUUPDATE
40
2459502.38748008
9
$TDINDWG
40
0.0
9
$UCSORG
10
0.0
20
0.0
30
0.0
9
$UCSXDIR
10
1.0
20
0.0
30
0.0
9
$UCSYDIR
10
0.0
20
1.0
30
0.0
9
$DIMADEC
70
0
9
$DIMALT
70
0
9
$DIMALTD
70
2
9
$DIMALTF
40
25.4
9
$DIMALTRND
40
0.0
9
$DIMALTTD
70
2
9
$DIMALTTZ
70
0
9
$DIMALTU
70
2
9
$DIMALTZ
70
0
9
$DIMAPOST
1

9
$DIMATFIT
70
3
9
$DIMAUNIT
70
0
9
$DIMASZ
40
0.18
9
$DIMAZIN
70
0
9
$DIMSAH
70
0
9
$DIMBLK
1

9
$DIMLDRBLK
1

9
$DIMCEN
40
0.09
9
$DIMCLRD
70
0
9
$DIMCLRE
70
0
9
$DIMCLRT
70
0
9
$DIMDEC
70
4
9
$DIMDLE
40
0.0
9
$DIMDLI
40
0.38
9
$DIMDSEP
70
46
9
$DIMEXE
40
0.18
9
$DIMEXO
40
0.0625
9
$DIMFXLON
70
0
9
$DIMFXL
40
1.0
9
$DIMGAP
40
0.09
9
$DIMJUST
70
0
9
$DIMLFAC
40
1.0
9
$DIMLUNIT
70
2
9
$DIMLWD
70
-2
9
$DIMLWE
70
-2
9
$DIMPOST
1

9
$DIMRND
40
0.0
9
$DIMSCALE
40
1.0
9
$DIMSD1
70
0
9
$DIMSD2
70
0
9
$DIMSE1
70
0
9
$DIMSE2
70
0
9
$DIMSOXD
70
0
9
$DIMTAD
70
0
9
$DIMTDEC
70
4
9
$DIMTFAC
40
1.0
9
$DIMTIH
70
0
9
$DIMTIX
70
0
9
$DIMTM
40
0.0
9
$DIMTMOVE
70
0
9
$DIMTOFL
70
0
9
$DIMTOH
70
0
9
$DIMTOL
70
0
9
$DIMLIM
70
0
9
$DIMTOLJ
70
1
9
$DIMTP
40
0.0
9
$DIMTXT
40
0.18
9
$DIMTXTDIRECTION
70
0
9
$DIMTZIN
70
0
9
$DIMZIN
70
0
9
$DIMFRAC
70
0
9
$DIMLTYPE
6
ByBlock
9
$DIMLTEX1
6
ByBlock
9
$DIMLTEX2
6
ByBlock
0
ENDSEC
0
SECTION
2
CLASSES
0
CLASS
1
RASTERVARIABLES
2
AcDbRasterVariables
3
ISM
90
0
91
1
280
0
281
0
0
ENDSEC
0
SECTION
2
TABLES
0
TABLE
2
APPID
5
4
330
0
100
AcDbSymbolTable
70
4
0
APPID
5
19
330
4
100
AcDbSymbolTableRecord
100
AcDbRegAppTableRecord
2
ACAD
70
0
0
APPID
5
16E
330
4
100
AcDbSymbolTableRecord
100
AcDbRegAppTableRecord
2
AcCmTransparency
70
0
0
APPID
5
16F
330
4
100
AcDbSymbolTableRecord
100
AcDbRegAppTableRecord
2
GradientColor1ACI
70
0
0
APPID
5
170
330
4
100
AcDbSymbolTableRecord
100
AcDbRegAppTableRecord
2
GradientColor2ACI
70
0
0
ENDTAB
0
TABLE
2
VPORT
5
1
330
0
100
AcDbSymbolTable
70
1
0
VPORT
5
2
330
1
100
AcDbSymbolTableRecord
100
AcDbViewportTableRecord
2
*Active
70
0
10
0.0
20
0.0
11
1.0
21
1.0
12
0.0
22
0.0
13
0.0
23
0.0
14
0.5
24
0.5
15
10.0
25
10.0
16
0.0
26
0.0
36
1.0
17
0.0
27
0.0
37
0.0
40
10.0
41
1.0
75
0
76
1
0
ENDTAB
0
TABLE
2
LTYPE
5
7
330
0
100
AcDbSymbolTable
70
3
0
LTYPE
5
15
330
7
100
AcDbSymbolTableRecord
100
AcDbLinetypeTableRecord
2
Continuous
70
0
3
Solid line
72
65
73
0
40
0.0
0
LTYPE
5
16
330
7
100
AcDbSymbolTableRecord
100
AcDbLinetypeTableRecord
2
ByLayer
70
0
3

72
65
73
0
40
0.0
0
LTYPE
5
17
330
7
100
AcDbSymbolTableRecord
100
AcDbLinetypeTableRecord
2
ByBlock
70
0
3

72
65
73
0
40
0.0
0
ENDTAB
0
TABLE
2
LAYER
5
5
102
{ACAD_XDICTIONARY
360
6
102
}
330
0
100
AcDbSymbolTable
70
3
0
LAYER
5
14
330
5
100
AcDbSymbolTableRecord
100
AcDbLayerTableRecord
2
0
70
0
62
7
6
Continuous
290
1
370
-3
390
0
0
LAYER
5
33
330
5
100
AcDbSymbolTableRecord
100
AcDbLayerTableRecord
2
dim
70
0
62
3
6
Continuous
290
1
370
9
390
0
0
LAYER
5
E8
330
5
100
AcDbSymbolTableRecord
100
AcDbLayerTableRecord
2
02___PRT_ALL_AXES
70
0
62
7
6
Continuous
290
1
370
-3
390
0
0
ENDTAB
0
TABLE
2
STYLE
5
8
330
0
100
AcDbSymbolTable
70
1
0
STYLE
5
18
330
8
100
AcDbSymbolTableRecord
100
AcDbTextStyleTableRecord
2
Standard
3
simplex.shx
70
0
71
0
40
0.0
41
1.0
42
0.0
50
0.0
0
ENDTAB
0
TABLE
2
DIMSTYLE
5
A
330
0
100
AcDbSymbolTable
70
1
100
AcDbDimStyleTable
0
DIMSTYLE
105
1A
330
A
100
AcDbSymbolTableRecord
100
AcDbDimStyleTableRecord
2
Standard
3

4

40
1.0
41
0.18
42
0.0625
43
0.38
44
0.18
45
0.0
46
0.0
47
0.0
48
0.0
49
1.0
70
0
71
0
72
0
73
0
74
0
75
0
76
0
77
0
78
0
79
0
140
0.18
141
0.09
143
25.4
144
1.0
146
1.0
147
0.09
148
0.0
170
0
171
2
172
0
174
0
175
0
176
0
177
0
178
0
179
0
271
4
272
4
273
2
274
2
275
0
276
0
277
2
278
46
279
0
280
0
281
0
282
0
283
1
284
0
285
0
286
0
289
3
290
0
294
0
340
18
173
0
345
17
346
17
347
17
371
-2
372
-2
0
ENDTAB
0
TABLE
2
VIEW
5
3
330
0
100
AcDbSymbolTable
70
0
0
ENDTAB
0
TABLE
2
UCS
5
C
330
0
100
AcDbSymbolTable
70
0
0
ENDTAB
0
TABLE
2
BLOCK_RECORD
5
D
330
0
100
AcDbSymbolTable
70
10
0
BLOCK_RECORD
5
1C
330
D
100
AcDbSymbolTableRecord
100
AcDbBlockTableRecord
2
*Model_Space
340
20
0
BLOCK_RECORD
5
24
330
D
100
AcDbSymbolTableRecord
100
AcDbBlockTableRecord
2
30B6E8213E241947B43550FE57B7C9FFF3E6F7E9
340
0
70
0
280
1
281
0
1001
ACAD
1000
DesignCenter Data
1002
{
1070
1
1070
0
1002
}
0
BLOCK_RECORD
5
2A
330
D
100
AcDbSymbolTableRecord
100
AcDbBlockTableRecord
2
*U9
340
0
0
BLOCK_RECORD
5
2F
330
D
100
AcDbSymbolTableRecord
100
AcDbBlockTableRecord
2
*U8
340
0
0
BLOCK_RECORD
5
E4
330
D
100
AcDbSymbolTableRecord
100
AcDbBlockTableRecord
2
F1D24F86519E104E83DED4F0E144BEE9073FB65C
340
0
70
0
280
1
281
0
1001
ACAD
1000
DesignCenter Data
1002
{
1070
1
1070
0
1002
}
0
BLOCK_RECORD
5
F6
330
D
100
AcDbSymbolTableRecord
100
AcDbBlockTableRecord
2
*U11
340
0
0
BLOCK_RECORD
5
FB
330
D
100
AcDbSymbolTableRecord
100
AcDbBlockTableRecord
2
*U10
340
0
0
BLOCK_RECORD
5
149
330
D
100
AcDbSymbolTableRecord
100
AcDbBlockTableRecord
2
*U15
340
0
0
BLOCK_RECORD
5
14E
330
D
100
AcDbSymbolTableRecord
100
AcDbBlockTableRecord
2
*U14
340
0
0
BLOCK_RECORD
5
168
330
D
100
AcDbSymbolTableRecord
100
AcDbBlockTableRecord
2
*Paper_Space
340
16D
0
ENDTAB
0
ENDSEC
0
SECTION
2
BLOCKS
0
BLOCK
5
1E
330
1C
100
AcDbEntity
67
0
8
0
100
AcDbBlockBegin
2
*Model_Space
70
0
10
0.0
20
0.0
30
0.0
3
*Model_Space
4

0
ENDBLK
5
1D
330
1C
100
AcDbEntity
8
0
100
AcDbBlockEnd
0
BLOCK
5
26
330
24
100
AcDbEntity
8
0
100
AcDbBlockBegin
2
30B6E8213E241947B43550FE57B7C9FFF3E6F7E9
70
0
10
0.0
20
0.0
30
0.0
3
30B6E8213E241947B43550FE57B7C9FFF3E6F7E9
4

0
LWPOLYLINE
5
27
330
24
100
AcDbEntity
8
0
62
7
6
Continuous
370
-1
48
1.0
60
0
100
AcDbPolyline
90
48
70
1
38
0.0
39
0.0
10
-234.591408365024
20
67.0988496707423
40
0.0
41
0.0
42
0.0
10
-234.591408365024
20
80.0588496707487
40
0.0
41
0.0
42
0.0
10
-235.39140836502
20
80.6188496707464
40
0.0
41
0.0
42
0.0
10
-244.591408365024
20
89.8188496707435
40
0.0
41
0.0
42
0.0
10
-246.591408365024
20
89.8188496707435
40
0.0
41
0.0
42
0.0
10
-246.591408365024
20
97.9388496707461
40
0.0
41
0.0
42
0.0
10
-679.591408365028
20
97.9388496707461
40
0.0
41
0.0
42
0.0
10
-679.591408365028
20
89.8188496707435
40
0.0
41
0.0
42
0.0
10
-681.591408365028
20
89.8188496707435
40
0.0
41
0.0
42
0.0
10
-690.791408365025
20
80.6188496707464
40
0.0
41
0.0
42
0.0
10
-691.591408365028
20
80.0588496707487
40
0.0
41
0.0
42
0.0
10
-691.591408365028
20
67.0988496707423
40
0.0
41
0.0
42
-2.41421356237309
10
-692.591408365028
20
66.0988496707423
40
0.0
41
0.0
42
0.0
10
-705.551408365027
20
66.0988496707423
40
0.0
41
0.0
42
0.0
10
-706.111408365025
20
65.2988496707467
40
0.0
41
0.0
42
0.0
10
-715.311408365025
20
56.0988496707423
40
0.0
41
0.0
42
0.0
10
-715.311408365025
20
54.0988496707423
40
0.0
41
0.0
42
0.0
10
-723.431408365028
20
54.0988496707423
40
0.0
41
0.0
42
0.0
10
-723.431408365028
20
-251.901150329258
40
0.0
41
0.0
42
0.0
10
-715.311408365025
20
-251.901150329258
40
0.0
41
0.0
42
0.0
10
-715.311408365025
20
-253.901150329258
40
0.0
41
0.0
42
0.0
10
-706.111408365025
20
-263.101150329255
40
0.0
41
0.0
42
0.0
10
-705.551408365027
20
-263.901150329258
40
0.0
41
0.0
42
0.0
10
-692.591408365028
20
-263.901150329258
40
0.0
41
0.0
42
-2.41421356237309
10
-691.591408365028
20
-264.901150329258
40
0.0
41
0.0
42
0.0
10
-691.591408365028
20
-277.861150329257
40
0.0
41
0.0
42
0.0
10
-690.791408365025
20
-278.421150329254
40
0.0
41
0.0
42
0.0
10
-681.591408365028
20
-287.621150329259
40
0.0
41
0.0
42
0.0
10
-679.591408365028
20
-287.621150329259
40
0.0
41
0.0
42
0.0
10
-679.591408365028
20
-295.741150329254
40
0.0
41
0.0
42
0.0
10
-246.591408365024
20
-295.741150329254
40
0.0
41
0.0
42
0.0
10
-246.591408365024
20
-287.621150329259
40
0.0
41
0.0
42
0.0
10
-244.591408365024
20
-287.621150329259
40
0.0
41
0.0
42
0.0
10
-235.39140836502
20
-278.421150329254
40
0.0
41
0.0
42
0.0
10
-234.591408365024
20
-277.861150329257
40
0.0
41
0.0
42
0.0
10
-234.591408365024
20
-264.901150329258
40
0.0
41
0.0
42
-2.41421356237305
10
-233.591408365024
20
-263.901150329258
40
0.0
41
0.0
42
0.0
10
-220.631408365025
20
-263.901150329258
40
0.0
41
0.0
42
0.0
10
-220.07140836502
20
-263.101150329255
40
0.0
41
0.0
42
0.0
10
-210.871408365023
20
-253.901150329258
40
0.0
41
0.0
42
0.0
10
-210.871408365023
20
-251.901150329258
40
0.0
41
0.0
42
0.0
10
-202.75140836502
20
-251.901150329258
40
0.0
41
0.0
42
0.0
10
-202.75140836502
20
54.0988496707423
40
0.0
41
0.0
42
0.0
10
-210.871408365023
20
54.0988496707423
40
0.0
41
0.0
42
0.0
10
-210.871408365023
20
56.0988496707423
40
0.0
41
0.0
42
0.0
10
-220.07140836502
20
65.2988496707467
40
0.0
41
0.0
42
0.0
10
-220.631408365025
20
66.0988496707423
40
0.0
41
0.0
42
0.0
10
-233.591408365024
20
66.0988496707423
40
0.0
41
0.0
42
-2.41421356237305
210
0.0
220
0.0
230
1.0
0
INSERT
5
29
330
24
100
AcDbEntity
8
dim
62
256
6
ByLayer
370
-1
48
1.0
60
0
100
AcDbBlockReference
2
*U9
10
-661.591408365028
20
-233.901150329258
30
0.0
41
1.0
42
1.0
43
1.0
50
0.0
210
0.0
220
0.0
230
1.0
0
ENDBLK
5
25
330
24
100
AcDbEntity
8
0
100
AcDbBlockEnd
0
BLOCK
5
2C
330
2A
100
AcDbEntity
8
0
100
AcDbBlockBegin
2
*U9
70
1
10
0.0
20
0.0
30
0.0
3
*U9
4

0
INSERT
5
2E
330
2A
100
AcDbEntity
8
dim
62
0
440
16777216
6
ByBlock
370
-2
48
1.0
60
0
100
AcDbBlockReference
2
*U8
10
0.0
20
0.0
30
0.0
41
1.0
42
1.0
43
1.0
50
0.0
210
0.0
220
0.0
230
1.0
0
INSERT
5
35
330
2A
100
AcDbEntity
8
dim
62
0
440
16777216
6
ByBlock
370
-2
48
1.0
60
0
100
AcDbBlockReference
2
*U8
10
0.0000000000000024
20
38.4
30
0.0
41
1.0
42
1.0
43
1.0
50
0.0
210
0.0
220
0.0
230
1.0
0
INSERT
5
37
330
2A
100
AcDbEntity
8
dim
62
0
440
16777216
6
ByBlock
370
-2
48
1.0
60
0
100
AcDbBlockReference
2
*U8
10
0.0000000000000047
20
76.8
30
0.0
41
1.0
42
1.0
43
1.0
50
0.0
210
0.0
220
0.0
230
1.0
0
INSERT
5
39
330
2A
100
AcDbEntity
8
dim
62
0
440
16777216
6
ByBlock
370
-2
48
1.0
60
0
100
AcDbBlockReference
2
*U8
10
0.0000000000000071
20
115.2
30
0.0
41
1.0
42
1.0
43
1.0
50
0.0
210
0.0
220
0.0
230
1.0
0
INSERT
5
3B
330
2A
100
AcDbEntity
8
dim
62
0
440
16777216
6
ByBlock
370
-2
48
1.0
60
0
100
AcDbBlockReference
2
*U8
10
0.0000000000000094
20
153.6
30
0.0
41
1.0
42
1.0
43
1.0
50
0.0
210
0.0
220
0.0
230
1.0
0
INSERT
5
3D
330
2A
100
AcDbEntity
8
dim
62
0
440
16777216
6
ByBlock
370
-2
48
1.0
60
0
100
AcDbBlockReference
2
*U8
10
0.0000000000000118
20
192.0
30
0.0
41
1.0
42
1.0
43
1.0
50
0.0
210
0.0
220
0.0
230
1.0
0
INSERT
5
3F
330
2A
100
AcDbEntity
8
dim
62
0
440
16777216
6
ByBlock
370
-2
48
1.0
60
0
100
AcDbBlockReference
2
*U8
10
0.0000000000000141
20
230.4
30
0.0
41
1.0
42
1.0
43
1.0
50
0.0
210
0.0
220
0.0
230
1.0
0
INSERT
5
41
330
2A
100
AcDbEntity
8
dim
62
0
440
16777216
6
ByBlock
370
-2
48
1.0
60
0
100
AcDbBlockReference
2
*U8
10
0.0000000000000165
20
268.8
30
0.0
41
1.0
42
1.0
43
1.0
50
0.0
210
0.0
220
0.0
230
1.0
0
INSERT
5
43
330
2A
100
AcDbEntity
8
dim
62
0
440
16777216
6
ByBlock
370
-2
48
1.0
60
0
100
AcDbBlockReference
2
*U8
10
39.7
20
0.0
30
0.0
41
1.0
42
1.0
43
1.0
50
0.0
210
0.0
220
0.0
230
1.0
0
INSERT
5
45
330
2A
100
AcDbEntity
8
dim
62
0
440
16777216
6
ByBlock
370
-2
48
1.0
60
0
100
AcDbBlockReference
2
*U8
10
39.7
20
38.4
30
0.0
41
1.0
42
1.0
43
1.0
50
0.0
210
0.0
220
0.0
230
1.0
0
INSERT
5
47
330
2A
100
AcDbEntity
8
dim
62
0
440
16777216
6
ByBlock
370
-2
48
1.0
60
0
100
AcDbBlockReference
2
*U8
10
39.7
20
76.8
30
0.0
41
1.0
42
1.0
43
1.0
50
0.0
210
0.0
220
0.0
230
1.0
0
INSERT
5
49
330
2A
100
AcDbEntity
8
dim
62
0
440
16777216
6
ByBlock
370
-2
48
1.0
60
0
100
AcDbBlockReference
2
*U8
10
39.7
20
115.2
30
0.0
41
1.0
42
1.0
43
1.0
50
0.0
210
0.0
220
0.0
230
1.0
0
INSERT
5
4B
330
2A
100
AcDbEntity
8
dim
62
0
440
16777216
6
ByBlock
370
-2
48
1.0
60
0
100
AcDbBlockReference
2
*U8
10
39.7
20
153.6
30
0.0
41
1.0
42
1.0
43
1.0
50
0.0
210
0.0
220
0.0
230
1.0
0
INSERT
5
4D
330
2A
100
AcDbEntity
8
dim
62
0
440
16777216
6
ByBlock
370
-2
48
1.0
60
0
100
AcDbBlockReference
2
*U8
10
39.7
20
192.0
30
0.0
41
1.0
42
1.0
43
1.0
50
0.0
210
0.0
220
0.0
230
1.0
0
INSERT
5
4F
330
2A
100
AcDbEntity
8
dim
62
0
440
16777216
6
ByBlock
370
-2
48
1.0
60
0
100
AcDbBlockReference
2
*U8
10
39.7
20
230.4
30
0.0
41
1.0
42
1.0
43
1.0
50
0.0
210
0.0
220
0.0
230
1.0
0
INSERT
5
51
330
2A
100
AcDbEntity
8
dim
62
0
440
16777216
6
ByBlock
370
-2
48
1.0
60
0
100
AcDbBlockReference
2
*U8
10
39.7
20
268.8
30
0.0
41
1.0
42
1.0
43
1.0
50
0.0
210
0.0
220
0.0
230
1.0
0
INSERT
5
53
330
2A
100
AcDbEntity
8
dim
62
0
440
16777216
6
ByBlock
370
-2
48
1.0
60
0
100
AcDbBlockReference
2
*U8
10
79.4
20
0.0
30
0.0
41
1.0
42
1.0
43
1.0
50
0.0
210
0.0
220
0.0
230
1.0
0
INSERT
5
55
330
2A
100
AcDbEntity
8
dim
62
0
440
16777216
6
ByBlock
370
-2
48
1.0
60
0
100
AcDbBlockReference
2
*U8
10
79.4
20
38.4
30
0.0
41
1.0
42
1.0
43
1.0
50
0.0
210
0.0
220
0.0
230
1.0
0
INSERT
5
57
330
2A
100
AcDbEntity
8
dim
62
0
440
16777216
6
ByBlock
370
-2
48
1.0
60
0
100
AcDbBlockReference
2
*U8
10
79.4
20
76.8
30
0.0
41
1.0
42
1.0
43
1.0
50
0.0
210
0.0
220
0.0
230
1.0
0
INSERT
5
59
330
2A
100
AcDbEntity
8
dim
62
0
440
16777216
6
ByBlock
370
-2
48
1.0
60
0
100
AcDbBlockReference
2
*U8
10
79.4
20
115.2
30
0.0
41
1.0
42
1.0
43
1.0
50
0.0
210
0.0
220
0.0
230
1.0
0
INSERT
5
5B
330
2A
100
AcDbEntity
8
dim
62
0
440
16777216
6
ByBlock
370
-2
48
1.0
60
0
100
AcDbBlockReference
2
*U8
10
79.4
20
153.6
30
0.0
41
1.0
42
1.0
43
1.0
50
0.0
210
0.0
220
0.0
230
1.0
0
INSERT
5
5D
330
2A
100
AcDbEntity
8
dim
62
0
440
16777216
6
ByBlock
370
-2
48
1.0
60
0
100
AcDbBlockReference
2
*U8
10
79.4
20
192.0
30
0.0
41
1.0
42
1.0
43
1.0
50
0.0
210
0.0
220
0.0
230
1.0
0
INSERT
5
5F
330
2A
100
AcDbEntity
8
dim
62
0
440
16777216
6
ByBlock
370
-2
48
1.0
60
0
100
AcDbBlockReference
2
*U8
10
79.4
20
230.4
30
0.0
41
1.0
42
1.0
43
1.0
50
0.0
210
0.0
220
0.0
230
1.0
0
INSERT
5
61
330
2A
100
AcDbEntity
8
dim
62
0
440
16777216
6
ByBlock
370
-2
48
1.0
60
0
100
AcDbBlockReference
2
*U8
10
79.4
20
268.8
30
0.0
41
1.0
42
1.0
43
1.0
50
0.0
210
0.0
220
0.0
230
1.0
0
INSERT
5
63
330
2A
100
AcDbEntity
8
dim
62
0
440
16777216
6
ByBlock
370
-2
48
1.0
60
0
100
AcDbBlockReference
2
*U8
10
119.1
20
0.0
30
0.0
41
1.0
42
1.0
43
1.0
50
0.0
210
0.0
220
0.0
230
1.0
0
INSERT
5
65
330
2A
100
AcDbEntity
8
dim
62
0
440
16777216
6
ByBlock
370
-2
48
1.0
60
0
100
AcDbBlockReference
2
*U8
10
119.1
20
38.4
30
0.0
41
1.0
42
1.0
43
1.0
50
0.0
210
0.0
220
0.0
230
1.0
0
INSERT
5
67
330
2A
100
AcDbEntity
8
dim
62
0
440
16777216
6
ByBlock
370
-2
48
1.0
60
0
100
AcDbBlockReference
2
*U8
10
119.1
20
76.8
30
0.0
41
1.0
42
1.0
43
1.0
50
0.0
210
0.0
220
0.0
230
1.0
0
INSERT
5
69
330
2A
100
AcDbEntity
8
dim
62
0
440
16777216
6
ByBlock
370
-2
48
1.0
60
0
100
AcDbBlockReference
2
*U8
10
119.1
20
115.2
30
0.0
41
1.0
42
1.0
43
1.0
50
0.0
210
0.0
220
0.0
230
1.0
0
INSERT
5
6B
330
2A
100
AcDbEntity
8
dim
62
0
440
16777216
6
ByBlock
370
-2
48
1.0
60
0
100
AcDbBlockReference
2
*U8
10
119.1
20
153.6
30
0.0
41
1.0
42
1.0
43
1.0
50
0.0
210
0.0
220
0.0
230
1.0
0
INSERT
5
6D
330
2A
100
AcDbEntity
8
dim
62
0
440
16777216
6
ByBlock
370
-2
48
1.0
60
0
100
AcDbBlockReference
2
*U8
10
119.1
20
192.0
30
0.0
41
1.0
42
1.0
43
1.0
50
0.0
210
0.0
220
0.0
230
1.0
0
INSERT
5
6F
330
2A
100
AcDbEntity
8
dim
62
0
440
16777216
6
ByBlock
370
-2
48
1.0
60
0
100
AcDbBlockReference
2
*U8
10
119.1
20
230.4
30
0.0
41
1.0
42
1.0
43
1.0
50
0.0
210
0.0
220
0.0
230
1.0
0
INSERT
5
71
330
2A
100
AcDbEntity
8
dim
62
0
440
16777216
6
ByBlock
370
-2
48
1.0
60
0
100
AcDbBlockReference
2
*U8
10
119.1
20
268.8
30
0.0
41
1.0
42
1.0
43
1.0
50
0.0
210
0.0
220
0.0
230
1.0
0
INSERT
5
73
330
2A
100
AcDbEntity
8
dim
62
0
440
16777216
6
ByBlock
370
-2
48
1.0
60
0
100
AcDbBlockReference
2
*U8
10
158.8
20
0.0
30
0.0
41
1.0
42
1.0
43
1.0
50
0.0
210
0.0
220
0.0
230
1.0
0
INSERT
5
75
330
2A
100
AcDbEntity
8
dim
62
0
440
16777216
6
ByBlock
370
-2
48
1.0
60
0
100
AcDbBlockReference
2
*U8
10
158.8
20
38.4
30
0.0
41
1.0
42
1.0
43
1.0
50
0.0
210
0.0
220
0.0
230
1.0
0
INSERT
5
77
330
2A
100
AcDbEntity
8
dim
62
0
440
16777216
6
ByBlock
370
-2
48
1.0
60
0
100
AcDbBlockReference
2
*U8
10
158.8
20
76.8
30
0.0
41
1.0
42
1.0
43
1.0
50
0.0
210
0.0
220
0.0
230
1.0
0
INSERT
5
79
330
2A
100
AcDbEntity
8
dim
62
0
440
16777216
6
ByBlock
370
-2
48
1.0
60
0
100
AcDbBlockReference
2
*U8
10
158.8
20
115.2
30
0.0
41
1.0
42
1.0
43
1.0
50
0.0
210
0.0
220
0.0
230
1.0
0
INSERT
5
7B
330
2A
100
AcDbEntity
8
dim
62
0
440
16777216
6
ByBlock
370
-2
48
1.0
60
0
100
AcDbBlockReference
2
*U8
10
158.8
20
153.6
30
0.0
41
1.0
42
1.0
43
1.0
50
0.0
210
0.0
220
0.0
230
1.0
0
INSERT
5
7D
330
2A
100
AcDbEntity
8
dim
62
0
440
16777216
6
ByBlock
370
-2
48
1.0
60
0
100
AcDbBlockReference
2
*U8
10
158.8
20
192.0
30
0.0
41
1.0
42
1.0
43
1.0
50
0.0
210
0.0
220
0.0
230
1.0
0
INSERT
5
7F
330
2A
100
AcDbEntity
8
dim
62
0
440
16777216
6
ByBlock
370
-2
48
1.0
60
0
100
AcDbBlockReference
2
*U8
10
158.8
20
230.4
30
0.0
41
1.0
42
1.0
43
1.0
50
0.0
210
0.0
220
0.0
230
1.0
0
INSERT
5
81
330
2A
100
AcDbEntity
8
dim
62
0
440
16777216
6
ByBlock
370
-2
48
1.0
60
0
100
AcDbBlockReference
2
*U8
10
158.8
20
268.8
30
0.0
41
1.0
42
1.0
43
1.0
50
0.0
210
0.0
220
0.0
230
1.0
0
INSERT
5
83
330
2A
100
AcDbEntity
8
dim
62
0
440
16777216
6
ByBlock
370
-2
48
1.0
60
0
100
AcDbBlockReference
2
*U8
10
198.5
20
0.0
30
0.0
41
1.0
42
1.0
43
1.0
50
0.0
210
0.0
220
0.0
230
1.0
0
INSERT
5
85
330
2A
100
AcDbEntity
8
dim
62
0
440
16777216
6
ByBlock
370
-2
48
1.0
60
0
100
AcDbBlockReference
2
*U8
10
198.5
20
38.4
30
0.0
41
1.0
42
1.0
43
1.0
50
0.0
210
0.0
220
0.0
230
1.0
0
INSERT
5
87
330
2A
100
AcDbEntity
8
dim
62
0
440
16777216
6
ByBlock
370
-2
48
1.0
60
0
100
AcDbBlockReference
2
*U8
10
198.5
20
76.8
30
0.0
41
1.0
42
1.0
43
1.0
50
0.0
210
0.0
220
0.0
230
1.0
0
INSERT
5
89
330
2A
100
AcDbEntity
8
dim
62
0
440
16777216
6
ByBlock
370
-2
48
1.0
60
0
100
AcDbBlockReference
2
*U8
10
198.5
20
115.2
30
0.0
41
1.0
42
1.0
43
1.0
50
0.0
210
0.0
220
0.0
230
1.0
0
INSERT
5
8B
330
2A
100
AcDbEntity
8
dim
62
0
440
16777216
6
ByBlock
370
-2
48
1.0
60
0
100
AcDbBlockReference
2
*U8
10
198.5
20
153.6
30
0.0
41
1.0
42
1.0
43
1.0
50
0.0
210
0.0
220
0.0
230
1.0
0
INSERT
5
8D
330
2A
100
AcDbEntity
8
dim
62
0
440
16777216
6
ByBlock
370
-2
48
1.0
60
0
100
AcDbBlockReference
2
*U8
10
198.5
20
192.0
30
0.0
41
1.0
42
1.0
43
1.0
50
0.0
210
0.0
220
0.0
230
1.0
0
INSERT
5
8F
330
2A
100
AcDbEntity
8
dim
62
0
440
16777216
6
ByBlock
370
-2
48
1.0
60
0
100
AcDbBlockReference
2
*U8
10
198.5
20
230.4
30
0.0
41
1.0
42
1.0
43
1.0
50
0.0
210
0.0
220
0.0
230
1.0
0
INSERT
5
91
330
2A
100
AcDbEntity
8
dim
62
0
440
16777216
6
ByBlock
370
-2
48
1.0
60
0
100
AcDbBlockReference
2
*U8
10
198.5
20
268.8
30
0.0
41
1.0
42
1.0
43
1.0
50
0.0
210
0.0
220
0.0
230
1.0
0
INSERT
5
93
330
2A
100
AcDbEntity
8
dim
62
0
440
16777216
6
ByBlock
370
-2
48
1.0
60
0
100
AcDbBlockReference
2
*U8
10
238.2
20
0.0
30
0.0
41
1.0
42
1.0
43
1.0
50
0.0
210
0.0
220
0.0
230
1.0
0
INSERT
5
95
330
2A
100
AcDbEntity
8
dim
62
0
440
16777216
6
ByBlock
370
-2
48
1.0
60
0
100
AcDbBlockReference
2
*U8
10
238.2
20
38.4
30
0.0
41
1.0
42
1.0
43
1.0
50
0.0
210
0.0
220
0.0
230
1.0
0
INSERT
5
97
330
2A
100
AcDbEntity
8
dim
62
0
440
16777216
6
ByBlock
370
-2
48
1.0
60
0
100
AcDbBlockReference
2
*U8
10
238.2
20
76.8
30
0.0
41
1.0
42
1.0
43
1.0
50
0.0
210
0.0
220
0.0
230
1.0
0
INSERT
5
99
330
2A
100
AcDbEntity
8
dim
62
0
440
16777216
6
ByBlock
370
-2
48
1.0
60
0
100
AcDbBlockReference
2
*U8
10
238.2
20
115.2
30
0.0
41
1.0
42
1.0
43
1.0
50
0.0
210
0.0
220
0.0
230
1.0
0
INSERT
5
9B
330
2A
100
AcDbEntity
8
dim
62
0
440
16777216
6
ByBlock
370
-2
48
1.0
60
0
100
AcDbBlockReference
2
*U8
10
238.2
20
153.6
30
0.0
41
1.0
42
1.0
43
1.0
50
0.0
210
0.0
220
0.0
230
1.0
0
INSERT
5
9D
330
2A
100
AcDbEntity
8
dim
62
0
440
16777216
6
ByBlock
370
-2
48
1.0
60
0
100
AcDbBlockReference
2
*U8
10
238.2
20
192.0
30
0.0
41
1.0
42
1.0
43
1.0
50
0.0
210
0.0
220
0.0
230
1.0
0
INSERT
5
9F
330
2A
100
AcDbEntity
8
dim
62
0
440
16777216
6
ByBlock
370
-2
48
1.0
60
0
100
AcDbBlockReference
2
*U8
10
238.2
20
230.4
30
0.0
41
1.0
42
1.0
43
1.0
50
0.0
210
0.0
220
0.0
230
1.0
0
INSERT
5
A1
330
2A
100
AcDbEntity
8
dim
62
0
440
16777216
6
ByBlock
370
-2
48
1.0
60
0
100
AcDbBlockReference
2
*U8
10
238.2
20
268.8
30
0.0
41
1.0
42
1.0
43
1.0
50
0.0
210
0.0
220
0.0
230
1.0
0
INSERT
5
A3
330
2A
100
AcDbEntity
8
dim
62
0
440
16777216
6
ByBlock
370
-2
48
1.0
60
0
100
AcDbBlockReference
2
*U8
10
277.9
20
0.0
30
0.0
41
1.0
42
1.0
43
1.0
50
0.0
210
0.0
220
0.0
230
1.0
0
INSERT
5
A5
330
2A
100
AcDbEntity
8
dim
62
0
440
16777216
6
ByBlock
370
-2
48
1.0
60
0
100
AcDbBlockReference
2
*U8
10
277.9
20
38.4
30
0.0
41
1.0
42
1.0
43
1.0
50
0.0
210
0.0
220
0.0
230
1.0
0
INSERT
5
A7
330
2A
100
AcDbEntity
8
dim
62
0
440
16777216
6
ByBlock
370
-2
48
1.0
60
0
100
AcDbBlockReference
2
*U8
10
277.9
20
76.8
30
0.0
41
1.0
42
1.0
43
1.0
50
0.0
210
0.0
220
0.0
230
1.0
0
INSERT
5
A9
330
2A
100
AcDbEntity
8
dim
62
0
440
16777216
6
ByBlock
370
-2
48
1.0
60
0
100
AcDbBlockReference
2
*U8
10
277.9
20
115.2
30
0.0
41
1.0
42
1.0
43
1.0
50
0.0
210
0.0
220
0.0
230
1.0
0
INSERT
5
AB
330
2A
100
AcDbEntity
8
dim
62
0
440
16777216
6
ByBlock
370
-2
48
1.0
60
0
100
AcDbBlockReference
2
*U8
10
277.9
20
153.6
30
0.0
41
1.0
42
1.0
43
1.0
50
0.0
210
0.0
220
0.0
230
1.0
0
INSERT
5
AD
330
2A
100
AcDbEntity
8
dim
62
0
440
16777216
6
ByBlock
370
-2
48
1.0
60
0
100
AcDbBlockReference
2
*U8
10
277.9
20
192.0
30
0.0
41
1.0
42
1.0
43
1.0
50
0.0
210
0.0
220
0.0
230
1.0
0
INSERT
5
AF
330
2A
100
AcDbEntity
8
dim
62
0
440
16777216
6
ByBlock
370
-2
48
1.0
60
0
100
AcDbBlockReference
2
*U8
10
277.9
20
230.4
30
0.0
41
1.0
42
1.0
43
1.0
50
0.0
210
0.0
220
0.0
230
1.0
0
INSERT
5
B1
330
2A
100
AcDbEntity
8
dim
62
0
440
16777216
6
ByBlock
370
-2
48
1.0
60
0
100
AcDbBlockReference
2
*U8
10
277.9
20
268.8
30
0.0
41
1.0
42
1.0
43
1.0
50
0.0
210
0.0
220
0.0
230
1.0
0
INSERT
5
B3
330
2A
100
AcDbEntity
8
dim
62
0
440
16777216
6
ByBlock
370
-2
48
1.0
60
0
100
AcDbBlockReference
2
*U8
10
317.6
20
0.0
30
0.0
41
1.0
42
1.0
43
1.0
50
0.0
210
0.0
220
0.0
230
1.0
0
INSERT
5
B5
330
2A
100
AcDbEntity
8
dim
62
0
440
16777216
6
ByBlock
370
-2
48
1.0
60
0
100
AcDbBlockReference
2
*U8
10
317.6
20
38.4
30
0.0
41
1.0
42
1.0
43
1.0
50
0.0
210
0.0
220
0.0
230
1.0
0
INSERT
5
B7
330
2A
100
AcDbEntity
8
dim
62
0
440
16777216
6
ByBlock
370
-2
48
1.0
60
0
100
AcDbBlockReference
2
*U8
10
317.6
20
76.8
30
0.0
41
1.0
42
1.0
43
1.0
50
0.0
210
0.0
220
0.0
230
1.0
0
INSERT
5
B9
330
2A
100
AcDbEntity
8
dim
62
0
440
16777216
6
ByBlock
370
-2
48
1.0
60
0
100
AcDbBlockReference
2
*U8
10
317.6
20
115.2
30
0.0
41
1.0
42
1.0
43
1.0
50
0.0
210
0.0
220
0.0
230
1.0
0
INSERT
5
BB
330
2A
100
AcDbEntity
8
dim
62
0
440
16777216
6
ByBlock
370
-2
48
1.0
60
0
100
AcDbBlockReference
2
*U8
10
317.6
20
153.6
30
0.0
41
1.0
42
1.0
43
1.0
50
0.0
210
0.0
220
0.0
230
1.0
0
INSERT
5
BD
330
2A
100
AcDbEntity
8
dim
62
0
440
16777216
6
ByBlock
370
-2
48
1.0
60
0
100
AcDbBlockReference
2
*U8
10
317.6
20
192.0
30
0.0
41
1.0
42
1.0
43
1.0
50
0.0
210
0.0
220
0.0
230
1.0
0
INSERT
5
BF
330
2A
100
AcDbEntity
8
dim
62
0
440
16777216
6
ByBlock
370
-2
48
1.0
60
0
100
AcDbBlockReference
2
*U8
10
317.6
20
230.4
30
0.0
41
1.0
42
1.0
43
1.0
50
0.0
210
0.0
220
0.0
230
1.0
0
INSERT
5
C1
330
2A
100
AcDbEntity
8
dim
62
0
440
16777216
6
ByBlock
370
-2
48
1.0
60
0
100
AcDbBlockReference
2
*U8
10
317.6
20
268.8
30
0.0
41
1.0
42
1.0
43
1.0
50
0.0
210
0.0
220
0.0
230
1.0
0
INSERT
5
C3
330
2A
100
AcDbEntity
8
dim
62
0
440
16777216
6
ByBlock
370
-2
48
1.0
60
0
100
AcDbBlockReference
2
*U8
10
357.3
20
0.0
30
0.0
41
1.0
42
1.0
43
1.0
50
0.0
210
0.0
220
0.0
230
1.0
0
INSERT
5
C5
330
2A
100
AcDbEntity
8
dim
62
0
440
16777216
6
ByBlock
370
-2
48
1.0
60
0
100
AcDbBlockReference
2
*U8
10
357.3
20
38.4
30
0.0
41
1.0
42
1.0
43
1.0
50
0.0
210
0.0
220
0.0
230
1.0
0
INSERT
5
C7
330
2A
100
AcDbEntity
8
dim
62
0
440
16777216
6
ByBlock
370
-2
48
1.0
60
0
100
AcDbBlockReference
2
*U8
10
357.3
20
76.8
30
0.0
41
1.0
42
1.0
43
1.0
50
0.0
210
0.0
220
0.0
230
1.0
0
INSERT
5
C9
330
2A
100
AcDbEntity
8
dim
62
0
440
16777216
6
ByBlock
370
-2
48
1.0
60
0
100
AcDbBlockReference
2
*U8
10
357.3
20
115.2
30
0.0
41
1.0
42
1.0
43
1.0
50
0.0
210
0.0
220
0.0
230
1.0
0
INSERT
5
CB
330
2A
100
AcDbEntity
8
dim
62
0
440
16777216
6
ByBlock
370
-2
48
1.0
60
0
100
AcDbBlockReference
2
*U8
10
357.3
20
153.6
30
0.0
41
1.0
42
1.0
43
1.0
50
0.0
210
0.0
220
0.0
230
1.0
0
INSERT
5
CD
330
2A
100
AcDbEntity
8
dim
62
0
440
16777216
6
ByBlock
370
-2
48
1.0
60
0
100
AcDbBlockReference
2
*U8
10
357.3
20
192.0
30
0.0
41
1.0
42
1.0
43
1.0
50
0.0
210
0.0
220
0.0
230
1.0
0
INSERT
5
CF
330
2A
100
AcDbEntity
8
dim
62
0
440
16777216
6
ByBlock
370
-2
48
1.0
60
0
100
AcDbBlockReference
2
*U8
10
357.3
20
230.4
30
0.0
41
1.0
42
1.0
43
1.0
50
0.0
210
0.0
220
0.0
230
1.0
0
INSERT
5
D1
330
2A
100
AcDbEntity
8
dim
62
0
440
16777216
6
ByBlock
370
-2
48
1.0
60
0
100
AcDbBlockReference
2
*U8
10
357.3
20
268.8
30
0.0
41
1.0
42
1.0
43
1.0
50
0.0
210
0.0
220
0.0
230
1.0
0
INSERT
5
D3
330
2A
100
AcDbEntity
8
dim
62
0
440
16777216
6
ByBlock
370
-2
48
1.0
60
0
100
AcDbBlockReference
2
*U8
10
397.0
20
0.0
30
0.0
41
1.0
42
1.0
43
1.0
50
0.0
210
0.0
220
0.0
230
1.0
0
INSERT
5
D5
330
2A
100
AcDbEntity
8
dim
62
0
440
16777216
6
ByBlock
370
-2
48
1.0
60
0
100
AcDbBlockReference
2
*U8
10
397.0
20
38.4
30
0.0
41
1.0
42
1.0
43
1.0
50
0.0
210
0.0
220
0.0
230
1.0
0
INSERT
5
D7
330
2A
100
AcDbEntity
8
dim
62
0
440
16777216
6
ByBlock
370
-2
48
1.0
60
0
100
AcDbBlockReference
2
*U8
10
397.0
20
76.8
30
0.0
41
1.0
42
1.0
43
1.0
50
0.0
210
0.0
220
0.0
230
1.0
0
INSERT
5
D9
330
2A
100
AcDbEntity
8
dim
62
0
440
16777216
6
ByBlock
370
-2
48
1.0
60
0
100
AcDbBlockReference
2
*U8
10
397.0
20
115.2
30
0.0
41
1.0
42
1.0
43
1.0
50
0.0
210
0.0
220
0.0
230
1.0
0
INSERT
5
DB
330
2A
100
AcDbEntity
8
dim
62
0
440
16777216
6
ByBlock
370
-2
48
1.0
60
0
100
AcDbBlockReference
2
*U8
10
397.0
20
153.6
30
0.0
41
1.0
42
1.0
43
1.0
50
0.0
210
0.0
220
0.0
230
1.0
0
INSERT
5
DD
330
2A
100
AcDbEntity
8
dim
62
0
440
16777216
6
ByBlock
370
-2
48
1.0
60
0
100
AcDbBlockReference
2
*U8
10
397.0
20
192.0
30
0.0
41
1.0
42
1.0
43
1.0
50
0.0
210
0.0
220
0.0
230
1.0
0
INSERT
5
DF
330
2A
100
AcDbEntity
8
dim
62
0
440
16777216
6
ByBlock
370
-2
48
1.0
60
0
100
AcDbBlockReference
2
*U8
10
397.0
20
230.4
30
0.0
41
1.0
42
1.0
43
1.0
50
0.0
210
0.0
220
0.0
230
1.0
0
INSERT
5
E1
330
2A
100
AcDbEntity
8
dim
62
0
440
16777216
6
ByBlock
370
-2
48
1.0
60
0
100
AcDbBlockReference
2
*U8
10
397.0
20
268.8
30
0.0
41
1.0
42
1.0
43
1.0
50
0.0
210
0.0
220
0.0
230
1.0
0
ENDBLK
5
2B
330
2A
100
AcDbEntity
8
0
100
AcDbBlockEnd
0
BLOCK
5
31
330
2F
100
AcDbEntity
8
0
100
AcDbBlockBegin
2
*U8
70
1
10
0.0
20
0.0
30
0.0
3
*U8
4

0
CIRCLE
5
32
330
2F
100
AcDbEntity
8
0
62
256
6
ByLayer
370
-1
48
1.0
60
0
100
AcDbCircle
10
0.0
20
0.0
30
0.0
40
10.0
39
0.0
210
0.0
220
0.0
230
1.0
0
ENDBLK
5
30
330
2F
100
AcDbEntity
8
0
100
AcDbBlockEnd
0
BLOCK
5
E6
330
E4
100
AcDbEntity
8
0
100
AcDbBlockBegin
2
F1D24F86519E104E83DED4F0E144BEE9073FB65C
70
0
10
0.0
20
0.0
30
0.0
3
F1D24F86519E104E83DED4F0E144BEE9073FB65C
4

0
CIRCLE
5
E7
330
E4
100
AcDbEntity
8
02___PRT_ALL_AXES
62
7
6
Continuous
370
-1
48
1.0
60
0
100
AcDbCircle
10
4123.59134521649
20
2273.58090473906
30
0.0
40
57.5
39
0.0
210
0.0
220
0.0
230
1.0
0
CIRCLE
5
E9
330
E4
100
AcDbEntity
8
02___PRT_ALL_AXES
62
7
6
Continuous
370
-1
48
1.0
60
0
100
AcDbCircle
10
4176.09134521649
20
2326.08090473906
30
0.0
40
2.5
39
0.0
210
0.0
220
0.0
230
1.0
0
CIRCLE
5
EA
330
E4
100
AcDbEntity
8
02___PRT_ALL_AXES
62
7
6
Continuous
370
-1
48
1.0
60
0
100
AcDbCircle
10
4071.09134521649
20
2221.08090473906
30
0.0
40
2.5
39
0.0
210
0.0
220
0.0
230
1.0
0
CIRCLE
5
EB
330
E4
100
AcDbEntity
8
02___PRT_ALL_AXES
62
7
6
Continuous
370
-1
48
1.0
60
0
100
AcDbCircle
10
4176.09134521649
20
2221.08090473906
30
0.0
40
2.5
39
0.0
210
0.0
220
0.0
230
1.0
0
CIRCLE
5
EC
330
E4
100
AcDbEntity
8
02___PRT_ALL_AXES
62
7
6
Continuous
370
-1
48
1.0
60
0
100
AcDbCircle
10
4071.09134521649
20
2326.08090473906
30
0.0
40
2.5
39
0.0
210
0.0
220
0.0
230
1.0
0
CIRCLE
5
ED
330
E4
100
AcDbEntity
8
02___PRT_ALL_AXES
62
7
6
Continuous
370
-1
48
1.0
60
0
100
AcDbCircle
10
4478.09236018274
20
2273.58090473906
30
0.0
40
57.5
39
0.0
210
0.0
220
0.0
230
1.0
0
CIRCLE
5
EE
330
E4
100
AcDbEntity
8
02___PRT_ALL_AXES
62
7
6
Continuous
370
-1
48
1.0
60
0
100
AcDbCircle
10
4425.59236018274
20
2326.08090473906
30
0.0
40
2.5
39
0.0
210
0.0
220
0.0
230
1.0
0
CIRCLE
5
EF
330
E4
100
AcDbEntity
8
02___PRT_ALL_AXES
62
7
6
Continuous
370
-1
48
1.0
60
0
100
AcDbCircle
10
4530.59236018274
20
2221.08090473906
30
0.0
40
2.5
39
0.0
210
0.0
220
0.0
230
1.0
0
CIRCLE
5
F0
330
E4
100
AcDbEntity
8
02___PRT_ALL_AXES
62
7
6
Continuous
370
-1
48
1.0
60
0
100
AcDbCircle
10
4425.59236018274
20
2221.08090473906
30
0.0
40
2.5
39
0.0
210
0.0
220
0.0
230
1.0
0
CIRCLE
5
F1
330
E4
100
AcDbEntity
8
02___PRT_ALL_AXES
62
7
6
Continuous
370
-1
48
1.0
60
0
100
AcDbCircle
10
4530.59236018274
20
2326.08090473906
30
0.0
40
2.5
39
0.0
210
0.0
220
0.0
230
1.0
0
INSERT
5
F3
330
E4
100
AcDbEntity
8
0
62
256
6
ByLayer
370
-1
48
1.0
60
0
100
AcDbBlockReference
2
*U9
10
3976.82798138959
20
2156.01148912633
30
0.0
41
1.0
42
1.0
43
1.0
50
0.0
210
0.0
220
0.0
230
1.0
0
INSERT
5
F5
330
E4
100
AcDbEntity
8
0
62
256
6
ByLayer
370
-1
48
1.0
60
0
100
AcDbBlockReference
2
*U11
10
3976.82798138959
20
2391.15032035179
30
0.0
41
-1.0
42
1.0
43
1.0
50
180.0
210
0.0
220
0.0
230
1.0
0
INSERT
5
148
330
E4
100
AcDbEntity
8
0
62
256
6
ByLayer
370
-1
48
1.0
60
0
100
AcDbBlockReference
2
*U15
10
4698.47473623556
20
2231.11762304272
30
0.0
41
-1.0
42
1.0
43
1.0
50
0.0
210
0.0
220
0.0
230
1.0
0
LWPOLYLINE
5
15C
330
E4
100
AcDbEntity
8
0
62
256
6
ByLayer
370
-1
48
1.0
60
0
100
AcDbPolyline
90
4
70
1
38
0.0
39
0.0
10
3878.20896916367
20
2227.11762304272
40
0.0
41
0.0
42
0.0
10
3928.20896916367
20
2227.11762304272
40
0.0
41
0.0
42
1.0
10
3928.20896916367
20
2235.11762304272
40
0.0
41
0.0
42
0.0
10
3878.20896916367
20
2235.11762304272
40
0.0
41
0.0
42
1.0
210
0.0
220
0.0
230
1.0
0
LWPOLYLINE
5
15D
330
E4
100
AcDbEntity
8
0
62
256
6
ByLayer
370
-1
48
1.0
60
0
100
AcDbPolyline
90
4
70
1
38
0.0
39
0.0
10
3878.20896916367
20
2245.11762304272
40
0.0
41
0.0
42
0.0
10
3928.20896916367
20
2245.11762304272
40
0.0
41
0.0
42
1.0
10
3928.20896916367
20
2253.11762304272
40
0.0
41
0.0
42
0.0
10
3878.20896916367
20
2253.11762304272
40
0.0
41
0.0
42
1.0
210
0.0
220
0.0
230
1.0
0
LWPOLYLINE
5
15E
330
E4
100
AcDbEntity
8
0
62
256
6
ByLayer
370
-1
48
1.0
60
0
100
AcDbPolyline
90
4
70
1
38
0.0
39
0.0
10
3878.20896916367
20
2299.11762304272
40
0.0
41
0.0
42
0.0
10
3928.20896916367
20
2299.11762304272
40
0.0
41
0.0
42
1.0
10
3928.20896916367
20
2307.11762304272
40
0.0
41
0.0
42
0.0
10
3878.20896916367
20
2307.11762304272
40
0.0
41
0.0
42
1.0
210
0.0
220
0.0
230
1.0
0
LWPOLYLINE
5
15F
330
E4
100
AcDbEntity
8
0
62
256
6
ByLayer
370
-1
48
1.0
60
0
100
AcDbPolyline
90
4
70
1
38
0.0
39
0.0
10
3878.20896916367
20
2317.11762304272
40
0.0
41
0.0
42
0.0
10
3928.20896916367
20
2317.11762304272
40
0.0
41
0.0
42
1.0
10
3928.20896916367
20
2325.11762304272
40
0.0
41
0.0
42
0.0
10
3878.20896916367
20
2325.11762304272
40
0.0
41
0.0
42
1.0
210
0.0
220
0.0
230
1.0
0
CIRCLE
5
160
330
E4
100
AcDbEntity
8
0
62
256
6
ByLayer
370
-1
48
1.0
60
0
100
AcDbCircle
10
3905.46406591628
20
2276.26542629895
30
0.0
40
10.0
39
0.0
210
0.0
220
0.0
230
1.0
0
CIRCLE
5
161
330
E4
100
AcDbEntity
8
0
62
256
6
ByLayer
370
-1
48
1.0
60
0
100
AcDbCircle
10
4300.84185269961
20
2103.58090473906
30
0.0
40
2.5
39
0.0
210
0.0
220
0.0
230
1.0
0
CIRCLE
5
162
330
E4
100
AcDbEntity
8
0
62
256
6
ByLayer
370
-1
48
1.0
60
0
100
AcDbCircle
10
4585.7263970719
20
2103.58090473906
30
0.0
40
2.5
39
0.0
210
0.0
220
0.0
230
1.0
0
CIRCLE
5
163
330
E4
100
AcDbEntity
8
0
62
256
6
ByLayer
370
-1
48
1.0
60
0
100
AcDbCircle
10
3999.90197303723
20
2103.58090473906
30
0.0
40
2.5
39
0.0
210
0.0
220
0.0
230
1.0
0
CIRCLE
5
164
330
E4
100
AcDbEntity
8
0
62
256
6
ByLayer
370
-1
48
1.0
60
0
100
AcDbCircle
10
4300.84185269961
20
2443.58090473906
30
0.0
40
2.5
39
0.0
210
0.0
220
0.0
230
1.0
0
CIRCLE
5
165
330
E4
100
AcDbEntity
8
0
62
256
6
ByLayer
370
-1
48
1.0
60
0
100
AcDbCircle
10
4585.7263970719
20
2443.58090473906
30
0.0
40
2.5
39
0.0
210
0.0
220
0.0
230
1.0
0
CIRCLE
5
166
330
E4
100
AcDbEntity
8
0
62
256
6
ByLayer
370
-1
48
1.0
60
0
100
AcDbCircle
10
3999.90197303723
20
2443.58090473906
30
0.0
40
2.5
39
0.0
210
0.0
220
0.0
230
1.0
0
LWPOLYLINE
5
167
330
E4
100
AcDbEntity
8
0
62
256
6
ByLayer
370
-1
48
1.0
60
0
100
AcDbPolyline
90
24
70
1
38
0.0
39
0.0
10
3850.84185269962
20
2338.58090473906
40
0.0
41
0.0
42
0.0
10
3840.84185269962
20
2328.58090473906
40
0.0
41
0.0
42
0.0
10
3840.84185269962
20
2218.58090473906
40
0.0
41
0.0
42
0.0
10
3850.84185269962
20
2208.58090473906
40
0.0
41
0.0
42
0.0
10
3950.09185269962
20
2208.58090473906
40
0.0
41
0.0
42
-2.41421356237309
10
3950.84185269962
20
2207.83090473906
40
0.0
41
0.0
42
0.0
10
3950.84185269962
20
2108.58090473906
40
0.0
41
0.0
42
0.0
10
3960.84185269962
20
2098.58090473906
40
0.0
41
0.0
42
0.0
10
4640.84185269961
20
2098.58090473906
40
0.0
41
0.0
42
0.0
10
4650.84185269962
20
2108.58090473906
40
0.0
41
0.0
42
0.0
10
4650.84185269961
20
2207.83090473906
40
0.0
41
0.0
42
-2.41421356237309
10
4651.59185269961
20
2208.58090473906
40
0.0
41
0.0
42
0.0
10
4740.84185269962
20
2208.58090473906
40
0.0
41
0.0
42
0.0
10
4750.84185269962
20
2218.58090473906
40
0.0
41
0.0
42
0.0
10
4750.84185269962
20
2328.58090473906
40
0.0
41
0.0
42
0.0
10
4740.84185269962
20
2338.58090473906
40
0.0
41
0.0
42
0.0
10
4651.59185269961
20
2338.58090473906
40
0.0
41
0.0
42
-2.41421356237309
10
4650.84185269961
20
2339.33090473906
40
0.0
41
0.0
42
0.0
10
4650.84185269962
20
2438.58090473906
40
0.0
41
0.0
42
0.0
10
4640.84185269961
20
2448.58090473906
40
0.0
41
0.0
42
0.0
10
3960.84185269962
20
2448.58090473906
40
0.0
41
0.0
42
0.0
10
3950.84185269962
20
2438.58090473906
40
0.0
41
0.0
42
0.0
10
3950.84185269962
20
2339.33090473906
40
0.0
41
0.0
42
-2.41421356237309
10
3950.09185269962
20
2338.58090473906
40
0.0
41
0.0
42
0.0
210
0.0
220
0.0
230
1.0
0
ENDBLK
5
E5
330
E4
100
AcDbEntity
8
0
100
AcDbBlockEnd
0
BLOCK
5
F8
330
F6
100
AcDbEntity
8
0
100
AcDbBlockBegin
2
*U11
70
1
10
0.0
20
0.0
30
0.0
3
*U11
4

0
INSERT
5
FA
330
F6
100
AcDbEntity
8
0
62
0
440
16777216
6
ByBlock
370
-2
48
1.0
60
0
100
AcDbBlockReference
2
*U10
10
0.0
20
0.0
30
0.0
41
1.0
42
1.0
43
1.0
50
0.0
210
0.0
220
0.0
230
1.0
0
INSERT
5
100
330
F6
100
AcDbEntity
8
0
62
0
440
16777216
6
ByBlock
370
-2
48
1.0
60
0
100
AcDbBlockReference
2
*U10
10
18.0
20
0.0
30
0.0
41
1.0
42
1.0
43
1.0
50
0.0
210
0.0
220
0.0
230
1.0
0
INSERT
5
102
330
F6
100
AcDbEntity
8
0
62
0
440
16777216
6
ByBlock
370
-2
48
1.0
60
0
100
AcDbBlockReference
2
*U10
10
36.0
20
0.0
30
0.0
41
1.0
42
1.0
43
1.0
50
0.0
210
0.0
220
0.0
230
1.0
0
INSERT
5
104
330
F6
100
AcDbEntity
8
0
62
0
440
16777216
6
ByBlock
370
-2
48
1.0
60
0
100
AcDbBlockReference
2
*U10
10
54.0
20
0.0
30
0.0
41
1.0
42
1.0
43
1.0
50
0.0
210
0.0
220
0.0
230
1.0
0
INSERT
5
106
330
F6
100
AcDbEntity
8
0
62
0
440
16777216
6
ByBlock
370
-2
48
1.0
60
0
100
AcDbBlockReference
2
*U10
10
72.0
20
0.0
30
0.0
41
1.0
42
1.0
43
1.0
50
0.0
210
0.0
220
0.0
230
1.0
0
INSERT
5
108
330
F6
100
AcDbEntity
8
0
62
0
440
16777216
6
ByBlock
370
-2
48
1.0
60
0
100
AcDbBlockReference
2
*U10
10
90.0
20
0.0
30
0.0
41
1.0
42
1.0
43
1.0
50
0.0
210
0.0
220
0.0
230
1.0
0
INSERT
5
10A
330
F6
100
AcDbEntity
8
0
62
0
440
16777216
6
ByBlock
370
-2
48
1.0
60
0
100
AcDbBlockReference
2
*U10
10
108.0
20
0.0
30
0.0
41
1.0
42
1.0
43
1.0
50
0.0
210
0.0
220
0.0
230
1.0
0
INSERT
5
10C
330
F6
100
AcDbEntity
8
0
62
0
440
16777216
6
ByBlock
370
-2
48
1.0
60
0
100
AcDbBlockReference
2
*U10
10
126.0
20
0.0
30
0.0
41
1.0
42
1.0
43
1.0
50
0.0
210
0.0
220
0.0
230
1.0
0
INSERT
5
10E
330
F6
100
AcDbEntity
8
0
62
0
440
16777216
6
ByBlock
370
-2
48
1.0
60
0
100
AcDbBlockReference
2
*U10
10
144.0
20
0.0
30
0.0
41
1.0
42
1.0
43
1.0
50
0.0
210
0.0
220
0.0
230
1.0
0
INSERT
5
110
330
F6
100
AcDbEntity
8
0
62
0
440
16777216
6
ByBlock
370
-2
48
1.0
60
0
100
AcDbBlockReference
2
*U10
10
162.0
20
0.0
30
0.0
41
1.0
42
1.0
43
1.0
50
0.0
210
0.0
220
0.0
230
1.0
0
INSERT
5
112
330
F6
100
AcDbEntity
8
0
62
0
440
16777216
6
ByBlock
370
-2
48
1.0
60
0
100
AcDbBlockReference
2
*U10
10
180.0
20
0.0
30
0.0
41
1.0
42
1.0
43
1.0
50
0.0
210
0.0
220
0.0
230
1.0
0
INSERT
5
114
330
F6
100
AcDbEntity
8
0
62
0
440
16777216
6
ByBlock
370
-2
48
1.0
60
0
100
AcDbBlockReference
2
*U10
10
198.0
20
0.0
30
0.0
41
1.0
42
1.0
43
1.0
50
0.0
210
0.0
220
0.0
230
1.0
0
INSERT
5
116
330
F6
100
AcDbEntity
8
0
62
0
440
16777216
6
ByBlock
370
-2
48
1.0
60
0
100
AcDbBlockReference
2
*U10
10
216.0
20
0.0
30
0.0
41
1.0
42
1.0
43
1.0
50
0.0
210
0.0
220
0.0
230
1.0
0
INSERT
5
118
330
F6
100
AcDbEntity
8
0
62
0
440
16777216
6
ByBlock
370
-2
48
1.0
60
0
100
AcDbBlockReference
2
*U10
10
234.0
20
0.0
30
0.0
41
1.0
42
1.0
43
1.0
50
0.0
210
0.0
220
0.0
230
1.0
0
INSERT
5
11A
330
F6
100
AcDbEntity
8
0
62
0
440
16777216
6
ByBlock
370
-2
48
1.0
60
0
100
AcDbBlockReference
2
*U10
10
252.0
20
0.0
30
0.0
41
1.0
42
1.0
43
1.0
50
0.0
210
0.0
220
0.0
230
1.0
0
INSERT
5
11C
330
F6
100
AcDbEntity
8
0
62
0
440
16777216
6
ByBlock
370
-2
48
1.0
60
0
100
AcDbBlockReference
2
*U10
10
270.0
20
0.0
30
0.0
41
1.0
42
1.0
43
1.0
50
0.0
210
0.0
220
0.0
230
1.0
0
INSERT
5
11E
330
F6
100
AcDbEntity
8
0
62
0
440
16777216
6
ByBlock
370
-2
48
1.0
60
0
100
AcDbBlockReference
2
*U10
10
288.0
20
0.0
30
0.0
41
1.0
42
1.0
43
1.0
50
0.0
210
0.0
220
0.0
230
1.0
0
INSERT
5
120
330
F6
100
AcDbEntity
8
0
62
0
440
16777216
6
ByBlock
370
-2
48
1.0
60
0
100
AcDbBlockReference
2
*U10
10
306.0
20
0.0
30
0.0
41
1.0
42
1.0
43
1.0
50
0.0
210
0.0
220
0.0
230
1.0
0
INSERT
5
122
330
F6
100
AcDbEntity
8
0
62
0
440
16777216
6
ByBlock
370
-2
48
1.0
60
0
100
AcDbBlockReference
2
*U10
10
324.0
20
0.0
30
0.0
41
1.0
42
1.0
43
1.0
50
0.0
210
0.0
220
0.0
230
1.0
0
INSERT
5
124
330
F6
100
AcDbEntity
8
0
62
0
440
16777216
6
ByBlock
370
-2
48
1.0
60
0
100
AcDbBlockReference
2
*U10
10
342.0
20
0.0
30
0.0
41
1.0
42
1.0
43
1.0
50
0.0
210
0.0
220
0.0
230
1.0
0
INSERT
5
126
330
F6
100
AcDbEntity
8
0
62
0
440
16777216
6
ByBlock
370
-2
48
1.0
60
0
100
AcDbBlockReference
2
*U10
10
360.0
20
0.0
30
0.0
41
1.0
42
1.0
43
1.0
50
0.0
210
0.0
220
0.0
230
1.0
0
INSERT
5
128
330
F6
100
AcDbEntity
8
0
62
0
440
16777216
6
ByBlock
370
-2
48
1.0
60
0
100
AcDbBlockReference
2
*U10
10
378.0
20
0.0
30
0.0
41
1.0
42
1.0
43
1.0
50
0.0
210
0.0
220
0.0
230
1.0
0
INSERT
5
12A
330
F6
100
AcDbEntity
8
0
62
0
440
16777216
6
ByBlock
370
-2
48
1.0
60
0
100
AcDbBlockReference
2
*U10
10
396.0
20
0.0
30
0.0
41
1.0
42
1.0
43
1.0
50
0.0
210
0.0
220
0.0
230
1.0
0
INSERT
5
12C
330
F6
100
AcDbEntity
8
0
62
0
440
16777216
6
ByBlock
370
-2
48
1.0
60
0
100
AcDbBlockReference
2
*U10
10
414.0
20
0.0
30
0.0
41
1.0
42
1.0
43
1.0
50
0.0
210
0.0
220
0.0
230
1.0
0
INSERT
5
12E
330
F6
100
AcDbEntity
8
0
62
0
440
16777216
6
ByBlock
370
-2
48
1.0
60
0
100
AcDbBlockReference
2
*U10
10
432.0
20
0.0
30
0.0
41
1.0
42
1.0
43
1.0
50
0.0
210
0.0
220
0.0
230
1.0
0
INSERT
5
130
330
F6
100
AcDbEntity
8
0
62
0
440
16777216
6
ByBlock
370
-2
48
1.0
60
0
100
AcDbBlockReference
2
*U10
10
450.0
20
0.0
30
0.0
41
1.0
42
1.0
43
1.0
50
0.0
210
0.0
220
0.0
230
1.0
0
INSERT
5
132
330
F6
100
AcDbEntity
8
0
62
0
440
16777216
6
ByBlock
370
-2
48
1.0
60
0
100
AcDbBlockReference
2
*U10
10
468.0
20
0.0
30
0.0
41
1.0
42
1.0
43
1.0
50
0.0
210
0.0
220
0.0
230
1.0
0
INSERT
5
134
330
F6
100
AcDbEntity
8
0
62
0
440
16777216
6
ByBlock
370
-2
48
1.0
60
0
100
AcDbBlockReference
2
*U10
10
486.0
20
0.0
30
0.0
41
1.0
42
1.0
43
1.0
50
0.0
210
0.0
220
0.0
230
1.0
0
INSERT
5
136
330
F6
100
AcDbEntity
8
0
62
0
440
16777216
6
ByBlock
370
-2
48
1.0
60
0
100
AcDbBlockReference
2
*U10
10
504.0
20
0.0
30
0.0
41
1.0
42
1.0
43
1.0
50
0.0
210
0.0
220
0.0
230
1.0
0
INSERT
5
138
330
F6
100
AcDbEntity
8
0
62
0
440
16777216
6
ByBlock
370
-2
48
1.0
60
0
100
AcDbBlockReference
2
*U10
10
522.0
20
0.0
30
0.0
41
1.0
42
1.0
43
1.0
50
0.0
210
0.0
220
0.0
230
1.0
0
INSERT
5
13A
330
F6
100
AcDbEntity
8
0
62
0
440
16777216
6
ByBlock
370
-2
48
1.0
60
0
100
AcDbBlockReference
2
*U10
10
540.0
20
0.0
30
0.0
41
1.0
42
1.0
43
1.0
50
0.0
210
0.0
220
0.0
230
1.0
0
INSERT
5
13C
330
F6
100
AcDbEntity
8
0
62
0
440
16777216
6
ByBlock
370
-2
48
1.0
60
0
100
AcDbBlockReference
2
*U10
10
558.0
20
0.0
30
0.0
41
1.0
42
1.0
43
1.0
50
0.0
210
0.0
220
0.0
230
1.0
0
INSERT
5
13E
330
F6
100
AcDbEntity
8
0
62
0
440
16777216
6
ByBlock
370
-2
48
1.0
60
0
100
AcDbBlockReference
2
*U10
10
576.0
20
0.0
30
0.0
41
1.0
42
1.0
43
1.0
50
0.0
210
0.0
220
0.0
230
1.0
0
INSERT
5
140
330
F6
100
AcDbEntity
8
0
62
0
440
16777216
6
ByBlock
370
-2
48
1.0
60
0
100
AcDbBlockReference
2
*U10
10
594.0
20
0.0
30
0.0
41
1.0
42
1.0
43
1.0
50
0.0
210
0.0
220
0.0
230
1.0
0
INSERT
5
142
330
F6
100
AcDbEntity
8
0
62
0
440
16777216
6
ByBlock
370
-2
48
1.0
60
0
100
AcDbBlockReference
2
*U10
10
612.0
20
0.0
30
0.0
41
1.0
42
1.0
43
1.0
50
0.0
210
0.0
220
0.0
230
1.0
0
INSERT
5
144
330
F6
100
AcDbEntity
8
0
62
0
440
16777216
6
ByBlock
370
-2
48
1.0
60
0
100
AcDbBlockReference
2
*U10
10
630.0
20
0.0
30
0.0
41
1.0
42
1.0
43
1.0
50
0.0
210
0.0
220
0.0
230
1.0
0
INSERT
5
146
330
F6
100
AcDbEntity
8
0
62
0
440
16777216
6
ByBlock
370
-2
48
1.0
60
0
100
AcDbBlockReference
2
*U10
10
648.0
20
0.0
30
0.0
41
1.0
42
1.0
43
1.0
50
0.0
210
0.0
220
0.0
230
1.0
0
ENDBLK
5
F7
330
F6
100
AcDbEntity
8
0
100
AcDbBlockEnd
0
BLOCK
5
FD
330
FB
100
AcDbEntity
8
0
100
AcDbBlockBegin
2
*U10
70
1
10
0.0
20
0.0
30
0.0
3
*U10
4

0
LWPOLYLINE
5
FE
330
FB
100
AcDbEntity
8
0
62
256
6
ByLayer
370
-1
48
1.0
60
0
100
AcDbPolyline
90
4
70
1
38
0.0
39
0.0
10
-4.0
20
25.0
40
0.0
41
0.0
42
0.0
10
-4.0
20
-25.0
40
0.0
41
0.0
42
1.0
10
4.0
20
-25.0
40
0.0
41
0.0
42
0.0
10
4.0
20
25.0
40
0.0
41
0.0
42
1.0
210
0.0
220
0.0
230
1.0
0
ENDBLK
5
FC
330
FB
100
AcDbEntity
8
0
100
AcDbBlockEnd
0
BLOCK
5
14B
330
149
100
AcDbEntity
8
0
100
AcDbBlockBegin
2
*U15
70
1
10
0.0
20
0.0
30
0.0
3
*U15
4

0
INSERT
5
14D
330
149
100
AcDbEntity
8
0
62
0
440
16777216
6
ByBlock
370
-2
48
1.0
60
0
100
AcDbBlockReference
2
*U14
10
0.0
20
0.0
30
0.0
41
1.0
42
1.0
43
1.0
50
0.0
210
0.0
220
0.0
230
1.0
0
INSERT
5
153
330
149
100
AcDbEntity
8
0
62
0
440
16777216
6
ByBlock
370
-2
48
1.0
60
0
100
AcDbBlockReference
2
*U14
10
0.0000000000000011
20
18.0
30
0.0
41
1.0
42
1.0
43
1.0
50
0.0
210
0.0
220
0.0
230
1.0
0
INSERT
5
155
330
149
100
AcDbEntity
8
0
62
0
440
16777216
6
ByBlock
370
-2
48
1.0
60
0
100
AcDbBlockReference
2
*U14
10
0.0000000000000022
20
36.0
30
0.0
41
1.0
42
1.0
43
1.0
50
0.0
210
0.0
220
0.0
230
1.0
0
INSERT
5
157
330
149
100
AcDbEntity
8
0
62
0
440
16777216
6
ByBlock
370
-2
48
1.0
60
0
100
AcDbBlockReference
2
*U14
10
0.0000000000000033
20
54.0
30
0.0
41
1.0
42
1.0
43
1.0
50
0.0
210
0.0
220
0.0
230
1.0
0
INSERT
5
159
330
149
100
AcDbEntity
8
0
62
0
440
16777216
6
ByBlock
370
-2
48
1.0
60
0
100
AcDbBlockReference
2
*U14
10
0.0000000000000044
20
72.0
30
0.0
41
1.0
42
1.0
43
1.0
50
0.0
210
0.0
220
0.0
230
1.0
0
INSERT
5
15B
330
149
100
AcDbEntity
8
0
62
0
440
16777216
6
ByBlock
370
-2
48
1.0
60
0
100
AcDbBlockReference
2
*U14
10
0.0000000000000055
20
90.0
30
0.0
41
1.0
42
1.0
43
1.0
50
0.0
210
0.0
220
0.0
230
1.0
0
ENDBLK
5
14A
330
149
100
AcDbEntity
8
0
100
AcDbBlockEnd
0
BLOCK
5
150
330
14E
100
AcDbEntity
8
0
100
AcDbBlockBegin
2
*U14
70
1
10
0.0
20
0.0
30
0.0
3
*U14
4

0
LWPOLYLINE
5
151
330
14E
100
AcDbEntity
8
0
62
256
6
ByLayer
370
-1
48
1.0
60
0
100
AcDbPolyline
90
4
70
1
38
0.0
39
0.0
10
-25.0
20
-4.0
40
0.0
41
0.0
42
0.0
10
25.0
20
-4.0
40
0.0
41
0.0
42
1.0
10
25.0
20
4.0
40
0.0
41
0.0
42
0.0
10
-25.0
20
4.0
40
0.0
41
0.0
42
1.0
210
0.0
220
0.0
230
1.0
0
ENDBLK
5
14F
330
14E
100
AcDbEntity
8
0
100
AcDbBlockEnd
0
BLOCK
5
16A
330
168
100
AcDbEntity
67
1
8
0
100
AcDbBlockBegin
2
*Paper_Space
70
0
10
0.0
20
0.0
30
0.0
3
*Paper_Space
4

0
ENDBLK
5
169
330
168
100
AcDbEntity
8
0
100
AcDbBlockEnd
0
ENDSEC
0
SECTION
2
ENTITIES
0
INSERT
5
23
330
1C
100
AcDbEntity
67
0
8
0
62
256
6
ByLayer
370
-1
48
1.0
60
0
100
AcDbBlockReference
2
30B6E8213E241947B43550FE57B7C9FFF3E6F7E9
10
0.0
20
0.0
30
0.0
41
1.0
42
1.0
43
1.0
50
0.0
210
0.0
220
0.0
230
1.0
0
INSERT
5
E3
330
1C
100
AcDbEntity
67
0
8
0
62
256
6
ByLayer
370
-1
48
1.0
60
0
100
AcDbBlockReference
2
F1D24F86519E104E83DED4F0E144BEE9073FB65C
10
0.0
20
5000.0
30
0.0
41
1.0
42
1.0
43
1.0
50
0.0
210
0.0
220
0.0
230
1.0
0
VIEWPORT
5
16C
330
168
100
AcDbEntity
67
1
8
0
62
256
6
ByLayer
370
-1
48
1.0
60
0
100
AcDbViewport
10
0.0
20
0.0
30
0.0
40
297.0
41
210.0
68
1
69
1
12
50.0
22
100.0
13
0.0
23
0.0
14
10.0
24
10.0
15
10.0
25
10.0
16
0.0
26
0.0
36
1.0
17
0.0
27
0.0
37
0.0
42
50.0
43
0.0
44
0.0
45
250.0
50
0.0
51
0.0
72
1000
90
819232
110
0.0
120
0.0
130
0.0
111
1.0
121
0.0
131
0.0
112
0.0
122
1.0
132
0.0
0
ENDSEC
0
SECTION
2
OBJECTS
0
DICTIONARY
5
171
330
0
100
AcDbDictionary
280
1
281
1
3
ACAD_GROUP
350
12
3
ACAD_LAYOUT
350
16B
3
ACAD_DGNDEFINITIONS
350
F
3
ACAD_DWFDEFINITIONS
350
10
3
ACAD_PDFDEFINITIONS
350
11
3
ACAD_MLINESTYLE
350
B
3
ACAD_IMAGE_DICT
350
E
3
ACAD_IMAGE_VARS
350
21
0
DICTIONARY
5
12
330
171
100
AcDbDictionary
280
1
281
1
0
DICTIONARY
5
16B
330
171
100
AcDbDictionary
280
1
281
1
3
Model
350
20
3
Layout1
350
16D
0
DICTIONARY
5
F
330
171
100
AcDbDictionary
280
1
281
1
0
DICTIONARY
5
10
330
171
100
AcDbDictionary
280
1
281
1
0
DICTIONARY
5
11
330
171
100
AcDbDictionary
280
1
281
1
0
DICTIONARY
5
B
330
171
100
AcDbDictionary
280
1
281
1
3
Standard
350
1B
0
DICTIONARY
5
E
330
171
100
AcDbDictionary
280
1
281
1
0
DICTIONARY
5
6
330
5
100
AcDbDictionary
280
1
281
1
3
ACAD_LAYERSTATES
360
172
0
DICTIONARY
5
172
330
6
100
AcDbDictionary
280
1
281
1
0
LAYOUT
5
20
330
16B
100
AcDbPlotSettings
1

2
none_device
4
ISO_A4_(210.00_x_297.00_MM)
6

40
7.5
41
20.0
42
7.5
43
20.0
44
210.0
45
297.0
46
0.0
47
0.0
48
0.0
49
0.0
140
0.0
141
0.0
142
1.0
143
1.0
70
11952
72
1
73
1
74
1
7

75
0
76
0
77
2
78
300
147
1.0
148
0.0
149
0.0
100
AcDbLayout
1
Model
71
0
10
-20.0
20
-7.5
11
277.0
21
202.5
12
0.0
22
0.0
32
0.0
14
25.7
24
19.5
34
0.0
15
231.3
25
175.5
35
0.0
146
0.0
13
0.0
23
0.0
33
0.0
16
1.0
26
0.0
36
0.0
17
0.0
27
1.0
37
0.0
76
0
330
1C
0
LAYOUT
5
16D
330
16B
100
AcDbPlotSettings
1

2
none_device
4
ISO_A4_(210.00_x_297.00_MM)
6

40
7.5
41
20.0
42
7.5
43
20.0
44
210.0
45
297.0
46
0.0
47
0.0
48
0.0
49
0.0
140
0.0
141
0.0
142
1.0
143
1.0
70
688
72
1
73
1
74
1
7

75
0
76
0
77
2
78
300
147
1.0
148
0.0
149
0.0
100
AcDbLayout
1
Layout1
71
1
10
-20.0
20
-7.5
11
277.0
21
202.5
12
0.0
22
0.0
32
0.0
14
25.7
24
19.5
34
0.0
15
231.3
25
175.5
35
0.0
146
0.0
13
0.0
23
0.0
33
0.0
16
1.0
26
0.0
36
0.0
17
0.0
27
1.0
37
0.0
76
0
330
168
0
MLINESTYLE
5
1B
330
B
100
AcDbMlineStyle
2
Standard
70
0
3

62
256
51
90.0
52
90.0
71
2
49
0.5
62
256
6
ByLayer
49
-0.5
62
256
6
ByLayer
0
RASTERVARIABLES
5
21
330
E
100
AcDbRasterVariables
90
0
70
1
71
1
72
0
0
ENDSEC
0
EOF
